<mxfile>
    <diagram id="Vkf1kccMHPyQg5MPIpvl" name="Page-1">
        <mxGraphModel dx="820" dy="500" grid="1" gridSize="10" guides="1" tooltips="1" connect="1" arrows="1" fold="1" page="1" pageScale="1" pageWidth="827" pageHeight="1169" math="0" shadow="0">
            <root>
                <mxCell id="0"/>
                <mxCell id="1" parent="0"/>
                <mxCell id="6" value="&lt;p style=&quot;margin: 4px 0px 0px ; text-align: center&quot;&gt;&lt;span style=&quot;font-size: 15px&quot;&gt;&lt;b&gt;&amp;nbsp;CompositeCar&lt;/b&gt;&lt;/span&gt;&lt;br&gt;&lt;/p&gt;&lt;hr size=&quot;1&quot; style=&quot;font-size: 16px&quot;&gt;&lt;div style=&quot;height: 2px ; font-size: 16px&quot;&gt;&lt;/div&gt;&lt;hr size=&quot;1&quot; style=&quot;font-size: 16px&quot;&gt;&lt;div style=&quot;height: 2px ; font-size: 16px&quot;&gt;+ operation() : void&lt;/div&gt;&lt;div style=&quot;height: 2px ; font-size: 16px&quot;&gt;&lt;br&gt;&lt;/div&gt;&lt;div style=&quot;height: 2px ; font-size: 16px&quot;&gt;&lt;br&gt;&lt;/div&gt;&lt;div style=&quot;height: 2px ; font-size: 16px&quot;&gt;&lt;br&gt;&lt;/div&gt;&lt;div style=&quot;height: 2px ; font-size: 16px&quot;&gt;&lt;br&gt;&lt;/div&gt;&lt;div style=&quot;height: 2px ; font-size: 16px&quot;&gt;&lt;br&gt;&lt;/div&gt;&lt;div style=&quot;height: 2px ; font-size: 16px&quot;&gt;&lt;br&gt;&lt;/div&gt;&lt;div style=&quot;height: 2px ; font-size: 16px&quot;&gt;&lt;br&gt;&lt;/div&gt;&lt;div style=&quot;height: 2px ; font-size: 16px&quot;&gt;&lt;br&gt;&lt;/div&gt;&lt;div style=&quot;height: 2px ; font-size: 16px&quot;&gt;+ add() : void&lt;/div&gt;&lt;div style=&quot;height: 2px ; font-size: 16px&quot;&gt;&lt;br&gt;&lt;/div&gt;&lt;div style=&quot;height: 2px ; font-size: 16px&quot;&gt;&lt;br&gt;&lt;/div&gt;&lt;div style=&quot;height: 2px ; font-size: 16px&quot;&gt;&lt;br&gt;&lt;/div&gt;&lt;div style=&quot;height: 2px ; font-size: 16px&quot;&gt;&lt;br&gt;&lt;/div&gt;&lt;div style=&quot;height: 2px ; font-size: 16px&quot;&gt;&lt;br&gt;&lt;/div&gt;&lt;div style=&quot;height: 2px ; font-size: 16px&quot;&gt;&lt;br&gt;&lt;/div&gt;&lt;div style=&quot;height: 2px ; font-size: 16px&quot;&gt;&lt;br&gt;&lt;/div&gt;&lt;div style=&quot;height: 2px ; font-size: 16px&quot;&gt;&lt;br&gt;&lt;/div&gt;&lt;div style=&quot;height: 2px ; font-size: 16px&quot;&gt;+ remove() : void&lt;/div&gt;" style="verticalAlign=top;align=left;overflow=fill;fontSize=12;fontFamily=Helvetica;html=1;" parent="1" vertex="1">
                    <mxGeometry x="440" y="320" width="200" height="130" as="geometry"/>
                </mxCell>
                <mxCell id="13" value="&lt;p style=&quot;margin: 4px 0px 0px ; text-align: center&quot;&gt;&lt;span style=&quot;font-size: 15px&quot;&gt;&lt;b&gt;&amp;nbsp;&lt;/b&gt;&lt;/span&gt;&lt;b style=&quot;font-size: 15px&quot;&gt;LeafCar&lt;/b&gt;&lt;/p&gt;&lt;hr size=&quot;1&quot; style=&quot;font-size: 16px&quot;&gt;&lt;div style=&quot;height: 2px ; font-size: 16px&quot;&gt;&lt;/div&gt;&lt;hr size=&quot;1&quot; style=&quot;font-size: 16px&quot;&gt;&lt;div style=&quot;height: 2px ; font-size: 16px&quot;&gt;+ operation() : void&lt;/div&gt;&lt;div style=&quot;height: 2px ; font-size: 16px&quot;&gt;&lt;br&gt;&lt;/div&gt;&lt;div style=&quot;height: 2px ; font-size: 16px&quot;&gt;&lt;br&gt;&lt;/div&gt;&lt;div style=&quot;height: 2px ; font-size: 16px&quot;&gt;&lt;br&gt;&lt;/div&gt;&lt;div style=&quot;height: 2px ; font-size: 16px&quot;&gt;&lt;br&gt;&lt;/div&gt;&lt;div style=&quot;height: 2px ; font-size: 16px&quot;&gt;&lt;br&gt;&lt;/div&gt;&lt;div style=&quot;height: 2px ; font-size: 16px&quot;&gt;&lt;br&gt;&lt;/div&gt;&lt;div style=&quot;height: 2px ; font-size: 16px&quot;&gt;&lt;br&gt;&lt;/div&gt;&lt;div style=&quot;height: 2px ; font-size: 16px&quot;&gt;&lt;br&gt;&lt;/div&gt;" style="verticalAlign=top;align=left;overflow=fill;fontSize=12;fontFamily=Helvetica;html=1;" vertex="1" parent="1">
                    <mxGeometry x="120" y="320" width="200" height="90" as="geometry"/>
                </mxCell>
                <mxCell id="14" value="&lt;p style=&quot;margin: 4px 0px 0px ; text-align: center ; font-size: 14px&quot;&gt;&lt;i style=&quot;font-size: 13px&quot;&gt;&amp;lt;&amp;lt;Interface&amp;gt;&amp;gt;&lt;/i&gt;&lt;br&gt;&lt;b&gt;&lt;font style=&quot;font-size: 14px&quot;&gt;Car&lt;/font&gt;&lt;/b&gt;&lt;/p&gt;&lt;hr size=&quot;1&quot; style=&quot;font-size: 14px&quot;&gt;&lt;p style=&quot;margin: 0px ; margin-left: 4px&quot;&gt;&lt;br&gt;&lt;/p&gt;&lt;hr size=&quot;1&quot;&gt;&lt;p style=&quot;margin: 0px 0px 0px 4px&quot;&gt;&lt;font style=&quot;font-size: 15px&quot;&gt;+ operation(): void&lt;/font&gt;&lt;br&gt;&lt;/p&gt;" style="verticalAlign=top;align=left;overflow=fill;fontSize=12;fontFamily=Helvetica;html=1;" vertex="1" parent="1">
                    <mxGeometry x="280" y="120" width="190" height="120" as="geometry"/>
                </mxCell>
                <mxCell id="15" value="" style="endArrow=block;startArrow=none;endFill=0;startFill=0;endSize=8;html=1;verticalAlign=bottom;dashed=1;labelBackgroundColor=none;exitX=0.25;exitY=0;exitDx=0;exitDy=0;entryX=0;entryY=1;entryDx=0;entryDy=0;" edge="1" parent="1" source="13" target="14">
                    <mxGeometry width="160" relative="1" as="geometry">
                        <mxPoint x="100.00000000000001" y="279.33" as="sourcePoint"/>
                        <mxPoint x="244.14" y="209.99999999999997" as="targetPoint"/>
                    </mxGeometry>
                </mxCell>
                <mxCell id="16" value="" style="endArrow=block;startArrow=none;endFill=0;startFill=0;endSize=8;html=1;verticalAlign=bottom;dashed=1;labelBackgroundColor=none;exitX=0.5;exitY=0;exitDx=0;exitDy=0;entryX=1;entryY=1;entryDx=0;entryDy=0;" edge="1" parent="1" source="6" target="14">
                    <mxGeometry width="160" relative="1" as="geometry">
                        <mxPoint x="540" y="290" as="sourcePoint"/>
                        <mxPoint x="650" y="210" as="targetPoint"/>
                    </mxGeometry>
                </mxCell>
                <mxCell id="17" value="" style="endArrow=open;html=1;endSize=12;startArrow=diamondThin;startSize=14;startFill=1;edgeStyle=orthogonalEdgeStyle;align=left;verticalAlign=bottom;entryX=0.995;entryY=0.367;entryDx=0;entryDy=0;entryPerimeter=0;exitX=1;exitY=0.5;exitDx=0;exitDy=0;" edge="1" parent="1" source="6" target="14">
                    <mxGeometry x="-0.625" y="90" relative="1" as="geometry">
                        <mxPoint x="580" y="210" as="sourcePoint"/>
                        <mxPoint x="740" y="210" as="targetPoint"/>
                        <Array as="points">
                            <mxPoint x="740" y="385"/>
                            <mxPoint x="740" y="164"/>
                        </Array>
                        <mxPoint as="offset"/>
                    </mxGeometry>
                </mxCell>
            </root>
        </mxGraphModel>
    </diagram>
</mxfile>